<svg width="100" height="100" viewBox="0 0 100 100" xmlns="http://www.w3.org/2000/svg">
  <!-- Badminton Racket -->
  <g transform="translate(20,10)">
    <!-- Racket Head -->
    <ellipse cx="30" cy="25" rx="18" ry="25" fill="none" stroke="#10b981" stroke-width="3"/>
    
    <!-- Strings -->
    <line x1="15" y1="25" x2="45" y2="25" stroke="#e5e7eb" stroke-width="1"/>
    <line x1="20" y1="15" x2="40" y2="35" stroke="#e5e7eb" stroke-width="1"/>
    <line x1="20" y1="35" x2="40" y2="15" stroke="#e5e7eb" stroke-width="1"/>
    <line x1="30" y1="5" x2="30" y2="45" stroke="#e5e7eb" stroke-width="1"/>
    <line x1="25" y1="10" x2="35" y2="40" stroke="#e5e7eb" stroke-width="1"/>
    <line x1="35" y1="10" x2="25" y2="40" stroke="#e5e7eb" stroke-width="1"/>
    
    <!-- Handle -->
    <rect x="28" y="50" width="4" height="25" fill="#10b981"/>
    <rect x="26" y="70" width="8" height="3" fill="#059669"/>
  </g>
  
  <!-- Shuttlecock -->
  <g transform="translate(55,45)">
    <!-- Cork base -->
    <circle cx="10" cy="15" r="3" fill="#fbbf24"/>
    <!-- Feathers -->
    <path d="M10,12 L8,6 L10,4 L12,6 Z" fill="white" stroke="#d1d5db" stroke-width="0.5"/>
    <path d="M10,12 L6,8 L5,6 L7,7 Z" fill="white" stroke="#d1d5db" stroke-width="0.5"/>
    <path d="M10,12 L14,8 L15,6 L13,7 Z" fill="white" stroke="#d1d5db" stroke-width="0.5"/>
    <path d="M10,12 L12,6 L14,4 L12,6 Z" fill="white" stroke="#d1d5db" stroke-width="0.5"/>
  </g>
</svg>
